<?xml version="1.0" standalone="no"?>
<!DOCTYPE svg PUBLIC "-//W3C//DTD SVG 20010904//EN"
 "http://www.w3.org/TR/2001/REC-SVG-20010904/DTD/svg10.dtd">
<svg version="1.0" xmlns="http://www.w3.org/2000/svg"
 width="1024.000000pt" height="1024.000000pt" viewBox="0 0 1024.000000 1024.000000"
 preserveAspectRatio="xMidYMid meet">

<g transform="translate(0.000000,1024.000000) scale(0.100000,-0.100000)"
fill="#000000" stroke="none">
<path d="M0 5120 l0 -5120 5120 0 5120 0 0 5120 0 5120 -5120 0 -5120 0 0
-5120z m7869 2599 c24 -23 31 -39 31 -69 0 -47 -6 -55 -288 -352 -229 -242
-248 -257 -309 -229 -34 15 -299 268 -312 298 -36 79 40 170 125 149 16 -4 70
-49 124 -102 l96 -94 150 157 c282 298 254 273 306 273 39 0 52 -5 77 -31z
m-1114 -1921 c-38 -108 -162 -600 -330 -1303 -59 -247 -117 -475 -128 -505
-48 -131 -131 -222 -250 -275 l-54 -23 5 47 c6 64 -21 153 -66 220 -30 44 -35
61 -33 97 3 57 -22 98 -73 121 -37 16 -91 18 -561 23 -381 4 -527 8 -548 17
-72 33 -124 94 -145 176 l-10 37 576 0 c599 0 629 2 708 43 49 25 108 99 126
158 10 30 29 115 43 189 35 183 136 653 142 663 2 4 -59 7 -136 7 -78 0 -141
-1 -141 -3 0 -6 -40 -232 -45 -254 -5 -23 -8 -23 -145 -23 l-140 0 1 48 c0 26
4 89 7 140 l7 92 -126 0 -126 0 -7 -92 c-3 -50 -6 -113 -6 -140 l0 -48 -154 0
-153 0 -8 140 -7 140 -127 0 -126 0 3 -140 4 -140 -174 0 -175 0 -38 133 c-45
158 -56 182 -98 207 -29 18 -51 20 -235 20 l-204 0 -34 -34 c-29 -29 -34 -41
-34 -79 0 -30 7 -53 22 -72 34 -44 75 -55 202 -55 109 0 114 -1 120 -22 28
-102 105 -417 151 -623 100 -447 113 -482 212 -586 50 -53 53 -58 33 -64 -31
-10 -96 -97 -116 -157 -11 -32 -18 -80 -17 -123 l1 -70 -192 6 c-162 5 -199 9
-244 26 -99 40 -189 129 -233 231 -21 49 -90 326 -179 715 -32 144 -90 395
-129 557 -39 162 -85 361 -104 443 l-34 147 1763 0 c1406 0 1762 -3 1759 -12z
m-2011 -920 c3 -46 7 -107 8 -136 l2 -53 -124 -1 -125 -1 -27 114 c-42 175
-54 159 116 159 l144 0 6 -82z m531 -50 c-4 -73 -9 -134 -10 -136 -2 -2 -58
-3 -125 -3 -67 0 -123 1 -125 3 -1 2 -6 63 -10 136 l-7 132 142 0 142 0 -7
-132z m499 105 c-3 -16 -15 -77 -27 -136 l-22 -109 -103 -1 -104 -2 7 105 c3
58 8 120 11 138 l5 32 119 0 120 0 -6 -27z m-416 -1045 c-13 -35 -20 -78 -21
-125 l0 -73 -166 0 -166 0 0 78 c-1 57 -6 89 -22 125 l-22 47 209 0 208 0 -20
-52z"/>
</g>
</svg>
